<svg xmlns="http://www.w3.org/2000/svg" viewBox="0 0 52 52" fill="none" stroke="currentColor" stroke-width="1.8" stroke-linecap="round" stroke-linejoin="round">
  <circle cx="26" cy="26" r="6.5"/>
  <g>
    <rect x="23.5" y="4" width="5" height="8" rx="1.5"/>
    <rect x="23.5" y="4" width="5" height="8" rx="1.5" transform="rotate(45,26,26)"/>
    <rect x="23.5" y="4" width="5" height="8" rx="1.5" transform="rotate(90,26,26)"/>
    <rect x="23.5" y="4" width="5" height="8" rx="1.5" transform="rotate(135,26,26)"/>
    <rect x="23.5" y="4" width="5" height="8" rx="1.5" transform="rotate(180,26,26)"/>
    <rect x="23.5" y="4" width="5" height="8" rx="1.5" transform="rotate(225,26,26)"/>
    <rect x="23.5" y="4" width="5" height="8" rx="1.5" transform="rotate(270,26,26)"/>
    <rect x="23.5" y="4" width="5" height="8" rx="1.5" transform="rotate(315,26,26)"/>
  </g>
</svg>
