<svg xmlns="http://www.w3.org/2000/svg" viewBox="0 0 260 48">
  <g transform="translate(3, 3) scale(0.4375)">
    <rect width="96" height="96" rx="22" fill="#1a1a1a"/>

    <!-- Film strips, bottom to top -->
    <g transform="rotate(-6, 48, 13)">
      <rect x="4" y="5" width="88" height="16" rx="3" fill="#c9a84c" opacity="0.55"/>
      <rect x="9"  y="9" width="11" height="8" rx="1" fill="#1a1a1a" opacity="0.30"/>
      <rect x="24" y="9" width="11" height="8" rx="1" fill="#1a1a1a" opacity="0.30"/>
      <rect x="39" y="9" width="11" height="8" rx="1" fill="#1a1a1a" opacity="0.30"/>
      <rect x="54" y="9" width="11" height="8" rx="1" fill="#1a1a1a" opacity="0.30"/>
      <rect x="69" y="9" width="11" height="8" rx="1" fill="#1a1a1a" opacity="0.30"/>
      <rect x="79" y="9" width="11" height="8" rx="1" fill="#1a1a1a" opacity="0.30"/>
    </g>

    <g transform="rotate(2, 48, 30)">
      <rect x="2" y="22" width="92" height="16" rx="3" fill="#c9a84c" opacity="0.40"/>
      <rect x="7"  y="26" width="11" height="8" rx="1" fill="#1a1a1a" opacity="0.30"/>
      <rect x="22" y="26" width="11" height="8" rx="1" fill="#1a1a1a" opacity="0.30"/>
      <rect x="37" y="26" width="11" height="8" rx="1" fill="#1a1a1a" opacity="0.30"/>
      <rect x="52" y="26" width="11" height="8" rx="1" fill="#1a1a1a" opacity="0.30"/>
      <rect x="67" y="26" width="11" height="8" rx="1" fill="#1a1a1a" opacity="0.30"/>
      <rect x="82" y="26" width="11" height="8" rx="1" fill="#1a1a1a" opacity="0.30"/>
    </g>

    <g transform="rotate(-4, 48, 47)">
      <rect x="4" y="39" width="88" height="16" rx="3" fill="#c9a84c" opacity="0.28"/>
      <rect x="9"  y="43" width="11" height="8" rx="1" fill="#1a1a1a" opacity="0.30"/>
      <rect x="24" y="43" width="11" height="8" rx="1" fill="#1a1a1a" opacity="0.30"/>
      <rect x="39" y="43" width="11" height="8" rx="1" fill="#1a1a1a" opacity="0.30"/>
      <rect x="54" y="43" width="11" height="8" rx="1" fill="#1a1a1a" opacity="0.30"/>
      <rect x="69" y="43" width="11" height="8" rx="1" fill="#1a1a1a" opacity="0.30"/>
      <rect x="79" y="43" width="11" height="8" rx="1" fill="#1a1a1a" opacity="0.30"/>
    </g>

    <g transform="rotate(3, 48, 64)">
      <rect x="2" y="56" width="92" height="16" rx="3" fill="#c9a84c" opacity="0.18"/>
      <rect x="7"  y="60" width="11" height="8" rx="1" fill="#1a1a1a" opacity="0.30"/>
      <rect x="22" y="60" width="11" height="8" rx="1" fill="#1a1a1a" opacity="0.30"/>
      <rect x="37" y="60" width="11" height="8" rx="1" fill="#1a1a1a" opacity="0.30"/>
      <rect x="52" y="60" width="11" height="8" rx="1" fill="#1a1a1a" opacity="0.30"/>
      <rect x="67" y="60" width="11" height="8" rx="1" fill="#1a1a1a" opacity="0.30"/>
      <rect x="82" y="60" width="11" height="8" rx="1" fill="#1a1a1a" opacity="0.30"/>
    </g>

    <g transform="rotate(-2, 48, 80)">
      <rect x="4" y="73" width="88" height="16" rx="3" fill="#c9a84c" opacity="0.09"/>
      <rect x="9"  y="77" width="11" height="8" rx="1" fill="#1a1a1a" opacity="0.30"/>
      <rect x="24" y="77" width="11" height="8" rx="1" fill="#1a1a1a" opacity="0.30"/>
      <rect x="39" y="77" width="11" height="8" rx="1" fill="#1a1a1a" opacity="0.30"/>
      <rect x="54" y="77" width="11" height="8" rx="1" fill="#1a1a1a" opacity="0.30"/>
      <rect x="69" y="77" width="11" height="8" rx="1" fill="#1a1a1a" opacity="0.30"/>
      <rect x="79" y="77" width="11" height="8" rx="1" fill="#1a1a1a" opacity="0.30"/>
    </g>

    <!-- The F: dark gap, gold fill, bright rim -->
    <text x="50" y="72" text-anchor="middle" font-family="'Times New Roman', Times, serif" font-size="76" font-weight="normal" font-style="italic" fill="#0d0d0d" stroke="#0d0d0d" stroke-width="5" stroke-linejoin="round">F</text>
    <text x="50" y="72" text-anchor="middle" font-family="'Times New Roman', Times, serif" font-size="76" font-weight="normal" font-style="italic" fill="#c9a84c">F</text>
    <text x="50" y="72" text-anchor="middle" font-family="'Times New Roman', Times, serif" font-size="76" font-weight="normal" font-style="italic" fill="none" stroke="#ffd966" stroke-width="1.5" stroke-linejoin="round">F</text>
  </g>

  <text x="56" y="32" font-family="-apple-system, 'Helvetica Neue', sans-serif" font-size="26" font-weight="300" letter-spacing="9" fill="#f0f0f0">FRAME</text>
</svg>
